<?xml version="1.0" encoding="utf-8"?>
<!-- Generator: Adobe Illustrator 18.1.1, SVG Export Plug-In . SVG Version: 6.00 Build 0)  -->
<svg version="1.1" id="Layer_1" xmlns="http://www.w3.org/2000/svg" xmlns:xlink="http://www.w3.org/1999/xlink" x="0px" y="0px"
	 viewBox="0 0 293 46" enable-background="new 0 0 293 46" xml:space="preserve">
<path fill="#FFFFFF" d="M9.1,35.4c0,0,3.5,3.9,9.8,3.9c5.9,0,9.4-3.8,9.4-8.3c0-9.6-14.3-8-14.3-14.1c0-2.3,2.2-4.3,5.4-4.3
	c3.8,0,6.5,2.6,6.5,2.6l1.9-3.4c0,0-2.9-3-8.4-3c-5.6,0-9.5,3.6-9.5,8.2c0,9.1,14.3,7.7,14.3,14.1c0,2.8-2.3,4.4-5.1,4.4
	c-4.4,0-7.5-3.2-7.5-3.2L9.1,35.4z"/>
<path fill="#FFFFFF" d="M52.1,9.2l-5.8,21.7c-0.4,1.6-0.6,3.1-0.6,3.1h-0.1c0,0-0.2-1.5-0.5-3.1L39.9,9.2h-4.3l7.5,29.6h4.8
	l5.1-19.2c0.5-1.9,0.9-4.2,0.9-4.2H54c0,0,0.4,2.3,0.9,4.2L60,38.8h4.8l7.7-29.6h-4.3l-5.4,21.7c-0.4,1.6-0.5,3.1-0.5,3.1h-0.1
	c0,0-0.2-1.5-0.6-3.1L55.8,9.2H52.1z"/>
<path fill="#FFFFFF" d="M82.4,38.8h4.1V9.2h-4.1V38.8z"/>
<path fill="#FFFFFF" d="M97.8,38.8h4.1l1.4-18.6c0.1-1.8,0.1-4.4,0.1-4.4h0.1c0,0,0.9,2.8,1.6,4.4l5.9,13.3h3.7l5.9-13.3
	c0.7-1.6,1.6-4.4,1.6-4.4h0.1c0,0-0.1,2.6,0,4.4l1.5,18.6h4.1l-2.4-29.6h-4.4l-6.8,16c-0.7,1.6-1.5,4-1.5,4h-0.1c0,0-0.8-2.3-1.5-4
	l-6.8-16h-4.4L97.8,38.8z"/>
<path fill="#FFFFFF" d="M136.9,35.4c0,0,3.5,3.9,9.8,3.9c5.9,0,9.4-3.8,9.4-8.3c0-9.6-14.3-8-14.3-14.1c0-2.3,2.2-4.3,5.4-4.3
	c3.8,0,6.5,2.6,6.5,2.6l1.9-3.4c0,0-2.9-3-8.4-3c-5.6,0-9.5,3.6-9.5,8.2c0,9.1,14.3,7.7,14.3,14.1c0,2.8-2.3,4.4-5.1,4.4
	c-4.4,0-7.5-3.2-7.5-3.2L136.9,35.4z"/>
<path fill="#FFFFFF" d="M165.1,38.8h4.1l1.4-18.6c0.1-1.8,0.1-4.4,0.1-4.4h0.1c0,0,0.9,2.8,1.6,4.4l5.9,13.3h3.7l5.9-13.3
	c0.7-1.6,1.6-4.4,1.6-4.4h0.1c0,0-0.1,2.6,0,4.4l1.5,18.6h4.1l-2.4-29.6h-4.4l-6.8,16c-0.7,1.6-1.5,4-1.5,4h-0.1c0,0-0.8-2.3-1.5-4
	l-6.8-16h-4.4L165.1,38.8z"/>
<path fill="#FFFFFF" d="M224,38.8h4.3L217.7,9.2h-4.4l-10.6,29.6h4.3l2.9-8.5h11.1L224,38.8z M215.6,13.3c0,0,0.6,2.7,1.1,4.2
	l3.3,9.4h-9l3.3-9.4C214.8,16,215.5,13.3,215.6,13.3L215.6,13.3z"/>
<path fill="#FFFFFF" d="M237,38.8h4.1V27h6.3l6.2,11.8h4.7l-6.3-11.5c-0.5-1-0.9-1.3-0.9-1.3v-0.1c3.2-1,5.3-4.2,5.3-8
	c0-3.9-2-6.9-5-8c-1.1-0.4-2.4-0.7-5.5-0.7h-9V38.8z M241.2,23.4V12.8h4.8c2.3,0,3.3,0.3,4.1,0.7c1.5,0.8,2.3,2.4,2.3,4.6
	c0,3.3-2,5.4-5.2,5.4H241.2z"/>
<path fill="#FFFFFF" d="M274.7,38.8h4.1v-26H289V9.2h-24.4v3.6h10.1V38.8z"/>
</svg>
