<?xml version="1.0" encoding="utf-8"?>
<!-- Generator: Adobe Illustrator 18.1.1, SVG Export Plug-In . SVG Version: 6.00 Build 0)  -->
<svg version="1.1" id="Layer_1" xmlns="http://www.w3.org/2000/svg" xmlns:xlink="http://www.w3.org/1999/xlink" x="0px" y="0px"
	 viewBox="0 0 738 294" enable-background="new 0 0 738 294" xml:space="preserve">
<g>
	<path fill="#FFFFFF" d="M33.3,4.4l17.1,97.3L71.8,7.9h31.9l21.2,93.6l17.1-97.1h31.3l-29.5,134h-35.5l-21-92.1l-21.2,92.1H30.4
		L1.8,4.4H33.3z"/>
	<path fill="#FFFFFF" d="M211.4,4.4l21,52.3l21.6-52.3h35.9l-42.2,84.1v49.9h-31.5V88.5L175.4,4.4H211.4z"/>
	<path fill="#FFFFFF" d="M349.6,4.4c11.9,0,22.1,2.3,29.1,7.8c6.8,5.1,10.9,12.8,10.9,24.5c0,15-6.8,27.2-22,31.3
		c17.5,3.1,24.5,14.2,24.5,30.9c0,14.6-5.4,24.1-13,30.1c-8.5,6.8-20,9.5-32.8,9.5h-52.8V4.4H349.6z M323.9,59.1h14.4
		c10.9,0,18.6-3.3,18.6-16.9c0-5.6-1.4-8.7-3.3-10.5c-1.9-1.7-5.4-2.3-9.7-2.3h-20V59.1z M323.9,113.5h18.6c5.6,0,9.9-1,12.6-3.5
		c2.7-2.5,4.3-6.6,4.3-13c0-11.7-5.2-14.6-15.7-14.6h-19.8V113.5z"/>
	<path fill="#FFFFFF" d="M430.2,4.4v134h-31.5V4.4H430.2z"/>
	<path fill="#FFFFFF" d="M518.3,4.4v26.2h-49.5v26.8h45.1v26.2h-45.1v28.8h50.5v26h-81.2V4.4H518.3z"/>
	<path fill="#FFFFFF" d="M585.7,4.4c12.4,0,23.3,1.9,31.5,7.2c8.7,5.6,14.8,14.6,14.8,31.1c0,18.5-7.4,32.4-25.3,37.1
		c16.9,3.1,22,19.6,26,58.7h-33c-4.9-36.1-7.6-45.5-19.6-45.5h-17.7v45.5h-31.5V4.4H585.7z M562.4,66.5h14.2
		c15,0,22.7-3.3,22.7-20.2c0-6.4-1.2-10.1-3.7-12.4c-2.3-2.1-5.8-2.7-11.7-2.7h-21.6V66.5z"/>
	<path fill="#FFFFFF" d="M731.1,31l-53.6,80l55-0.2v27.6h-92.7v-26.2L693,32.3h-51.1V4.8h89.2V31z"/>
	<path fill="#FFFFFF" d="M88.1,184.3c-8.2-5.6-20-7.8-28.2-7.8c-9.5,0-15.7,2.5-15.7,13c0,20.4,61.6,8.4,61.6,56.9
		c0,15.5-7.4,26.4-16.9,32.8c-9.1,6.2-21.8,9.3-34.8,9.3c-14.2,0-33.4-3.5-44.3-13.4l15.5-23.1c8.7,7,21.8,9.9,31.9,9.9
		c9.1,0,16.7-2.3,16.7-14c0-23.1-61.6-9.9-61.6-57.7c0-14.2,6.2-23.3,15.2-29.9c9.7-7.2,21.6-10.5,35-10.5
		c12.8,0,30.1,3.1,40.4,11.7L88.1,184.3z"/>
	<path fill="#FFFFFF" d="M161,152.2c12.2,0,23.9,2.1,32.4,8.7c8.7,6.8,14.6,17.7,14.6,37.3c0,18.8-5.2,30.9-14.4,38.1
		c-8.2,6.4-19,8.9-33.4,8.9h-19v41h-31.5v-134H161z M141.2,218.3h18.3c6.2,0,9.9-1.2,12.2-3.5c2.9-2.7,3.7-8,3.7-15.9
		c0-9.9-1.6-14.4-4.3-16.7s-6.4-2.9-12.4-2.9h-17.5V218.3z"/>
	<path fill="#FFFFFF" d="M309.9,274.2c-9.1,8.9-22.5,15-43.1,15c-20.2,0-33.8-5.6-42.5-14.8c-11.5-11.8-15.2-29.7-15.2-53.8
		c0-24.1,3.7-43.5,16.5-56.3c8.9-8.9,22.3-15,42.9-15c20.6,0,34,5.8,42.7,14.8c11.5,11.7,15.2,29.9,15.2,54
		C326.4,242.4,322.7,261.4,309.9,274.2z M286,182.4c-3.5-3.9-9.5-6.4-17.7-6.4c-8.7,0-15,2.5-19,7.4c-5.1,6.2-6.8,16.1-6.8,36.1
		c0,19.2,1.6,30.9,7,36.9c3.5,3.9,9.3,6.2,17.7,6.2c8.9,0,15-2.5,19-7.4c5.1-6.2,6.8-16.3,6.8-35.9C293,199.3,291.2,188.2,286,182.4
		z"/>
	<path fill="#FFFFFF" d="M383.8,152.2c12.4,0,23.3,1.9,31.5,7.2c8.7,5.6,14.8,14.6,14.8,31.1c0,18.5-7.4,32.4-25.3,37.1
		c16.9,3.1,22,19.6,26,58.7h-33c-4.9-36.1-7.6-45.5-19.6-45.5h-17.7v45.5H329v-134H383.8z M360.5,214.4h14.2
		c15,0,22.7-3.3,22.7-20.2c0-6.4-1.2-10.1-3.7-12.4c-2.3-2.1-5.8-2.7-11.7-2.7h-21.6V214.4z"/>
	<path fill="#FFFFFF" d="M533.8,152.2v28h-34.4v106.1h-31.5V180.2h-34.2v-28H533.8z"/>
	<path fill="#FFFFFF" d="M532.2,251.3c10.5,0,18.3,7.8,18.3,18.5c0,10.5-7.8,18.5-18.3,18.5s-18.5-8-18.5-18.5
		C513.8,259.1,521.5,251.3,532.2,251.3z"/>
	<path fill="#FFFFFF" d="M605.9,152.2c12.2,0,23.9,2.1,32.4,8.7c8.7,6.8,14.6,17.7,14.6,37.3c0,18.8-5.2,30.9-14.4,38.1
		c-8.2,6.4-19,8.9-33.4,8.9h-19v41h-31.5v-134H605.9z M586,218.3h18.3c6.2,0,9.9-1.2,12.2-3.5c2.9-2.7,3.7-8,3.7-15.9
		c0-9.9-1.6-14.4-4.3-16.7s-6.4-2.9-12.4-2.9H586V218.3z"/>
	<path fill="#FFFFFF" d="M685.1,152.2v106.1h46v28h-77.5v-134H685.1z"/>
</g>
</svg>
