<?xml version="1.0" encoding="utf-8"?>
<!-- Generator: Adobe Illustrator 18.1.1, SVG Export Plug-In . SVG Version: 6.00 Build 0)  -->
<svg version="1.1" id="Layer_1" xmlns="http://www.w3.org/2000/svg" xmlns:xlink="http://www.w3.org/1999/xlink" x="0px" y="0px"
	 viewBox="0 0 276 265.5" enable-background="new 0 0 276 265.5" xml:space="preserve">
<path fill-rule="evenodd" clip-rule="evenodd" fill="#FFFFFF" d="M137.5,2C65.4,2,7,60.4,7,132.5C7,204.6,65.4,263,137.5,263
	S268,204.6,268,132.5C268,60.4,209.6,2,137.5,2z M53.5,146.7c-0.1-0.1-0.2-0.2-0.3-0.3c-1.7-1.1-3-5.1-2.1-8.5
	c1-4.1,3.2-10.5,7.3-11.2c1.8,1.7,4.7,1.7,6.7,3.2c-2.4,2.4-2.7,6.1-2.7,10.9C58.9,141.2,55.1,144.3,53.5,146.7z M217.6,165.3
	c-1.6,4.1-5.6,7.1-9.7,8.8c-4.8,2-11.4,1.9-15.3-0.8c-2.4-1.7-4.2-5.2-7.8-5.6c-0.3,0.3-0.5,0.5-0.8,0.8c-2.7,3.5,1.8,8.6,3.5,9.8
	c3.7,2.7,9.7,6.1,17,4.3c2.9-0.7,5.9-1.9,7.9-2.7c0,0.4,0,0.7,0,1.1c1,0.7,0.6,2.4,0.5,2.9c-0.9,4.6-2.1,5.4-6.1,6.9
	c-11.9,4.4-33.1,0.1-42.7,6.9c-1.7,1.2-4,3.7-4.8,5.8c-2.5,6.7,6.1,8.1,11.1,6.9c0-0.2,0-0.4,0-0.5c0-0.4,0.3-1.1,0.2-1.9
	c-1.5-0.8-2.8-1.4-2.8-3.7c6.3-4,17.6-4.4,27.6-4.5c0,0.2,0,0.4,0,0.5c-2,1.4-3.8,4.2-5.3,6.1c-3.9,5.1-16.2,14.2-26.4,11.2
	c-2.1-0.6-4-1.7-5.7-2.7c-2.4-1.4-4.9-3.3-6.5-5.6c-7.9-11.8,2.7-26.9,12.6-29.8c4.5-1.3,10.6,0,15-1.1c0.3-0.9,0.5-1.3,0.5-2.7
	c-1.8-1.4-3.1-3.5-5.4-4.5c-6.1-2.6-13.6,0.8-17.5,3.2c-1.7,1-2.9,3-5.1,3.5c-1.6-1.2-3.8-0.6-4.6-2.7c-0.8-1-1.3-4.6-0.8-6.6
	c1.3-5.1,4-9.5,8.1-12c1.9-1.1,5.8-1.4,6.7-3.5c0.4-0.5,0.5-0.7,0.5-1.6c-3.6-3.6-9.7-5.9-12.6-9.8c-1.6-2.2-1.7-4.3-2.4-7.4
	c-6.7-28.8,32-16.1,48.6-23.1c1.7-0.7,2.8-2.3,4-3.5c0-1.5,0-1.7,0-3.2c-0.9-0.6-1.3-0.8-3-0.8c-3.5,3.7-11.7,3.2-18.8,3.2
	c-3.2,0.1-6.4,0.2-9.7,0.3c-1,0.2-3.6,0.9-4.8,0.5c-8.1-2.3-11.4-8.4-13.4-16.7c-1.4-5.7,0.2-12.5,3-15.2c1.9-1.9,6.2-2.6,5.6-6.1
	c-0.9-0.3-1.6-1.1-2.4-1.3c-3.7-1.1-6.4,1.8-7.8,3.2c-6.2,6.2-6.3,19-2.4,27.9c0.9,2.1,2.4,4.3,3.8,6.1c1.1,1.5,3.5,2.4,4.3,4.3
	c-12.7,1.7-17.6,19.2-12.1,32.4c1,2.3,2.3,4.9,3.8,6.9c0.9,1.2,2.5,1.8,3.2,3.2c-9.4,5.5-15.1,25.8-1.9,31.9c-0.5,1.6-1.8,3-2.4,4.5
	c-1.3,3-3.2,10.2-2.1,14.9c0.5,2,0.8,4.2,1.6,6.1c0.5,1.1,1.2,1.6,1.3,3.2c-1,1-1.8,2.6-3.2,3.2c-6.1,2.7-10.2-2-12.9-4.5
	c0.3-2.9,1.7-5.7,2.4-8.8c1.5-6.8-2.6-15-4.8-18.6c9.6-3.7,9.9-16.4,4.6-25c-1.4-2.2-5.5-5.6-6.2-7.4c7.7-3.9,12.2-24.8,6.2-34.3
	c-1.7-2.7-5.1-5.4-8.1-6.8c-1.1-0.6-2.5-0.5-3.5-1.5c0.1,0,0.2,0,0.3,0c1.8-2,4.7-4.2,6.4-7c4.2-6.8,6.1-20.7,1.3-28.4
	c-1.5-2.3-4-4.7-7-5.5c-3-0.8-5.6,0.7-5.6,3.2c2.8,1.8,6.7,4.3,8.1,7.5c0.9,2.2,1.4,6.1,0.8,8.8c-0.2,1.8-0.4,3.5-0.5,5.3
	c-2,7.1-5.8,13-13.2,14.8c-1,0.2-9.7-0.6-11-0.6c-1.6,0-3.2,0-4.8,0c-4.7,0-9.8,0.2-13.7-1c-2.4-0.7-2.5-2.4-5.6-2.5
	c-0.7,1.1-1.1,1.4-1.1,3.4c0.5,0.5,0.4,1,0.8,1.6c0.8,1.2,3.4,2.4,4.8,2.9c2.9,1.1,5.7,0.6,9.1,1.3c4.1,0.9,9.6-0.4,14,0.5
	c2.2,0.5,5.1,0,7.5,0.5c4.5,1,8.3,1.9,11.5,4c1.3,0.8,2.6,1.5,3.5,2.7c2.4,3.3,2.2,8.7,1.6,13.6c-0.4,3.4-1.3,5.8-3,8
	c-2.5,3.3-8.7,6-12.1,9c0,1,0.1,1.4,0.3,2.1c2.6,1.5,6.1,2.5,8.6,4.3c4.3,3.1,8.2,11.5,5.4,18.3c-1.5,0.9-3.2,1.6-5.4,1.9
	c-2.3-3.4-13.1-9.2-19.9-7.2c-3.3,1-4.8,3-7,5.1c0,1.4,0,2.1,0.8,2.7c3.1,2.2,9.4-0.2,13.4,0.8c9,2.2,20.7,14.8,15.6,26.8
	c-3.2,7.6-14.8,15.1-26.1,10.4c-7.4-3.1-15.3-10.2-19.3-17.2c1.3,0,2.5,0,3.8,0c1.3,1,3.9,0.1,5.6,0.5c5,1.1,18,0.7,18.3,5.7
	c-0.9,0.7-5.1,3.7-2.1,4.8c2,1.6,7.2,0.2,8.6-0.8c0.8-0.6,1.2-1.7,1.9-2.4c0.2-3.8-1.1-5.6-3.2-7.7c-4.4-4.3-7.8-4.3-15-5.8
	c-3.5-0.8-7.5,0.2-10.7-0.5c-2.9-0.6-6.1,0.3-8.6-0.3c-9.1-2-18.4-0.5-15.8-12.5c0.2,0,0.4,0,0.5,0c2.2,2,11.4,3.6,16.1,2.4
	c6.7-1.7,14-5.9,12.1-14.5c-0.3-0.1-0.5-0.2-0.8-0.3c-0.3-0.2-0.5-0.2-1.1-0.3c-0.9,0.9-2.2,1.3-3.2,2.1c-2.4,1.8-4,4.2-7.3,5.3
	c-7.5,2.4-17.4-3.3-20.1-7.4c-4.6-7.1,1.5-20.1,8.1-21.3c1.4,2.4,4.1,5,7.8,5c0.3-0.2,0.1-0.1,0.5-0.3c0.7-1.1,1.1-1.7,1.1-3.7
	c-2.9-2.8-8.4-6.6-5.9-13c0.6-1.5,2.1-2.5,3-3.7c11.9,2.1,23.3-3.2,28.7,5.8c1.1,1.8,1.9,5.1,0.8,7.7c-1.1,2.6-4.1,4.5-7,5.3
	c-1.8,0.5-5.7-0.5-6.4,1.1c-0.3,0.4-0.3,0.9-0.3,1.6c2.3,1.5,3.8,3.7,7,4.5c4.1,1,7.2-1.3,9.1-2.7c6-4.3,10.3-14.6,4.6-22.4
	c-3.8-5.1-10.3-7.3-17.7-8.3c-5.7,0-11.5,0-17.2,0c-3.7-1-7.2-1.8-9.9-3.6c-4.2-2.8-7.8-9.2-4.6-15.5c1.5-2.9,4.6-6.2,7.8-7.5
	c8.2-3.4,20.7,1.4,27.9,3.2c1.4,0.1,2.9,0.2,4.3,0.3c11,2.4,17.7-3.6,19.6-11.4c0.7-2.8,0-6-0.8-8c-3.5-8.2-10.7-9.9-20.4-12
	c-4.6-1-14.6,0.6-16.9,2.1c-0.4,0.5-0.9,1.1-1.3,1.6c0,1.1,0.1,2.1,0.3,2.9c4,2.1,11.2-0.7,16.7,0.5c5.7,1.3,10.2,1.5,13.2,5.3
	c1.2,1.6,3.6,4.4,2.1,7.7c-1.7,3.8-7.6,5.1-12.9,3.7c-6.1-1.5-12-2.4-18.3-4c-2.4-0.6-7-1.4-9.9-0.5c-0.4-3.1-3-6.2-1.9-10.4
	c2.1-7.7,12.9-13.7,20.7-16c2.2-0.6,6.6-1.2,9.4-0.5c5.5,1.3,8.9,3.7,15.6,3.5c0.3-0.5,0.3-0.4,0.5-1.1c-0.7-0.9-1-2-1.6-2.9
	c-3.4-4.5-12.2-7.2-20.2-7.2c0-0.2,0-0.4,0-0.5c3-2.3,4-5,8.1-6.6c1.9-0.7,5.9-0.8,8.1-0.3c6.6,1.6,11.6,3.1,13.2,9.6
	c0.9,3.8-1.6,6-1.9,8.8c0.9,0.9,0.8,1.3,2.7,1.3c2.7-2.7,7.5-5.5,5.6-11.7c-0.4-1.4-1.3-2.4-1.6-4c1.3-1.1,2.3-2.5,4-3.2
	c5.6-2.2,13.2,0.2,17.2,2.1c-0.9,1.8-2.1,3.6-2.7,5.8c-1.3,5.1,3.5,10.9,7.5,10.9c0.6-0.9,0.8-1.2,0.8-2.9
	c-3.4-3.4-1.1-10.2,1.3-12.6c7.4-7.4,22-4.9,26.3,3.1c-1.2,0-2.3,0-3.5,0c-1.6,1-4.4,0.5-6.2,1.1c-4.5,1.5-11.7,4.9-12.1,9.9
	c0.2,0,0.4,0,0.5,0c3.4,2,12.2-2.4,15.3-3.1c2.8-0.6,7.3-0.1,9.4,0.6c8.2,2.4,18.9,8.2,21,16.5c0.9,3.8-1.5,6.7-1.9,9.6
	c-9.5-0.1-16.5,1.6-24.2,3.7c-3.4,0.9-9.1,2.5-12.9,1.1c-2.2-0.8-2.8-2.7-4.3-4.3c-0.7-9.7,7.3-10.7,15.6-12.5
	c5.2-1.1,11.3,0.8,15.8,0c0.7-1.1,1.7-2.7,0.5-4.3c-1.4-2-13.1-4-17.7-2.9c-10.6,2.4-19,4.3-21.5,14.6c-0.6,2.7,0.4,6,1.1,7.7
	c2.4,6.3,4.9,7.4,12.1,9c1.5,0.3,4.8,0.7,6.7,0.3c5.1-1.1,10-1.5,14.8-2.9c4-1.2,10.7-3,15.8-1.3c3.8,1.2,6.9,4,8.9,7.2
	c3.9,6.3,0.4,13.5-4,16.4c-2.7,1.8-6.3,2.6-9.9,3.6c-5.7,0-11.5,0-17.2,0c-7.7,1-14.1,3.2-18,8.6c-6.8,9.5,1.1,22.8,9.7,24.9
	c4.4,1.1,7.9-1.5,9.7-3.2c0.6-0.5,2.1-1.3,1.6-2.7c-0.5-1.5-3.2-1.1-5.1-1.1c-0.7-0.4-1.8-0.2-2.7-0.5c-1.8-0.6-4.1-2.1-5.1-3.5
	c-2.3-3.4-1.3-8.5,1.1-10.9c1.6-1.6,3.4-2.8,5.9-3.5c2.3-0.7,5.6-0.1,8.3-0.1c4.6,0,9.1,0,13.7,0c0.8,1,2.2,2.1,2.7,3.5
	c3,8.1-5.5,9.5-6.2,14c1.1,1.6,0.7,2.6,3.5,2.6c1.3-1.2,3.3-1.8,4.6-2.9c0.5-0.7,1.1-1.4,1.6-2.1c0.5-0.1,0.4,0.2,0.5,0.3
	C213.9,148.2,220.5,157.9,217.6,165.3z M219.8,146.7c-1.5-2.5-5.3-5.5-8.9-5.8c0.8-5.7-1.1-7.4-2.4-11.2c3.1-0.4,4.6-2.4,7.3-2.9
	c1,0.9,2.4,1.6,3.2,2.7c1.8,2.4,2.7,5.6,3.5,9C223.2,141.8,221.9,145.9,219.8,146.7z"/>
</svg>
