<?xml version="1.0" encoding="utf-8"?>
<!-- Generator: Adobe Illustrator 18.1.1, SVG Export Plug-In . SVG Version: 6.00 Build 0)  -->
<svg version="1.1" id="Layer_1" xmlns="http://www.w3.org/2000/svg" xmlns:xlink="http://www.w3.org/1999/xlink" x="0px" y="0px"
	 viewBox="0 0 276 265.5" enable-background="new 0 0 276 265.5" xml:space="preserve">
<path fill="#FFFFFF" d="M85,29c4.3-5.4,2.8-15.8,2.7-16.2l0,0l0,0c0,0,0,0,0,0l0,0c-0.4,0-10.8,1-15.1,6.4
	c-4.3,5.4-0.5,12.9-0.4,13.2l0,0l0,0l0,0l0,0C72.5,32.4,80.7,34.4,85,29z"/>
<path fill="#FFFFFF" d="M87.5,39.7L87.5,39.7L87.5,39.7L87.5,39.7L87.5,39.7c-0.3-0.2-8.7-6.5-15.5-5.2c-0.7,0.1-1.3,0.3-1.9,0.6
	c0.1-0.6,0.2-1.3,0.1-2c-0.4-6.9-8.4-13.7-8.6-13.9l0,0c0,0,0,0,0,0l0,0l0,0c-0.3,0.3-7.5,7.9-7.1,14.8c0.4,6.9,8.2,10,8.4,10.2l0,0
	c0,0,0,0,0,0l0,0l0,0c0,0,0.1,0,0.1-0.1c0,0,0,0.1,0,0.1h0l0,0l0,0l0,0c0.2,0.2,5,7.1,11.8,5.9C81.5,48.7,87.3,40,87.5,39.7z"/>
<path fill="#FFFFFF" d="M76.1,54L76.1,54L76.1,54L76.1,54L76.1,54c-0.3-0.2-8.7-6.5-15.5-5.2c-0.7,0.1-1.3,0.3-1.9,0.6
	c0.1-0.6,0.2-1.3,0.1-2c-0.4-6.9-8.4-13.7-8.6-13.9v0l0,0l0,0v0c-0.2,0.3-7.5,7.9-7.1,14.8c0.4,6.9,8.2,10,8.4,10.1v0l0,0l0,0v0
	c0,0,0,0,0.1-0.1c0,0,0,0.1,0,0.1l0,0l0,0c0,0,0,0,0,0h0c0.2,0.2,5,7.1,11.8,5.9C70.2,63.1,75.9,54.3,76.1,54z"/>
<path fill="#FFFFFF" d="M64.8,68.3L64.8,68.3L64.8,68.3L64.8,68.3L64.8,68.3c-0.3-0.2-8.7-6.5-15.5-5.2c-0.7,0.1-1.3,0.3-1.9,0.6
	c0.1-0.6,0.2-1.3,0.1-2c-0.4-6.9-8.4-13.7-8.6-13.9l0,0c0,0,0,0,0,0l0,0l0,0c-0.2,0.3-7.5,7.9-7.1,14.8c0.4,6.9,8.2,10,8.4,10.1l0,0
	c0,0,0,0,0,0l0,0v0c0,0,0.1,0,0.1-0.1c0,0,0,0.1,0,0.1h0l0,0c0,0,0,0,0,0l0,0c0.2,0.2,5,7.1,11.8,5.9C58.9,77.4,64.6,68.6,64.8,68.3
	z"/>
<path fill="#FFFFFF" d="M31.4,139.2c-7.5,20.6-7,39.4,1.3,53.1c6.8,11.1,18.1,18.1,31.9,19.9c4.2,23.1,25.5,33.2,31.1,34.6
	c0.9,0.2,1.7,0.3,2.4,0.3c1.5,0,2.7-0.5,3.2-1.2c0.4-0.6,0.5-1.4,0.3-2.1c-0.2-0.6-0.7-1.5-2.2-2.1c-17.1-6.8-22.4-19.6-23.8-29.5
	c31-2.7,49.7-29.4,53.1-47.7c1.9-10.1-0.7-17.9-7-20.8c-2.4-1-5.1-1.5-8-1.5c-11.2,0-28.7,7.9-41,30.2c-5.6,10.8-8.5,21-8.8,30.4
	c-7.7-2.6-13.6-7.6-17.4-14.9c-6.3-12.1-6.4-29.4-0.2-47.7c60.3,0,95.3-27.8,108.1-53.9c4.5-9.2,7.4-22,2.1-30.4
	c-6.2-10-21.5-10.8-44.4-2.1C84,65.5,55.3,92.5,39,122.5c-1.8,3.4-3.4,6.6-4.8,9.6 M49.1,132.8c2.1-5.2,4.6-10,7.4-14.3
	c26.1-44.3,50.2-57.4,65.8-60.6c3.5-0.7,6.8-1,9.6-1c6.7,0,11.3,1.9,13.8,5.5c4.7,7,0.4,18.6-1,21.9
	C134,107.4,99.7,132.2,49.1,132.8z M75.2,204.5c0.3-14.3,6.2-29.3,12-37.9c7.6-11.1,17.1-16.1,23.2-16.1c1.3,0,2.5,0.2,3.4,0.7
	c5.5,2.8,7,8.4,4.4,16.9C110.2,190.3,94.2,203.8,75.2,204.5z"/>
<g>
	<path fill="#FFFFFF" d="M146.9,146.9c0,0-2.7,11.1-6,28.3c-1.5,7.5-2.7,13.8-2.7,19.2c0,3.9,1.5,4.6,2.7,4.6c2.1,0,6.2-7.9,9-19.6
		l0.8-4.4c2-11.4,4.6-21.4,6.2-28.1h11.4c-4.7,20.9-8.6,36.5-8.6,47.5c0,3.9,1.5,4.6,2.7,4.6c3.5,0,7.9-7.5,13.8-23
		c0.7,0,3.8,0.9,3.8,1.7v0.1c-5.9,15.3-10.6,30.9-21.6,30.9c-5.9,0-8.6-4.4-9.4-11c-3,6.6-6.8,11-12.1,11c-7.1,0-9.5-6.4-9.5-15.4
		c0-5.5,0.9-12,2.1-18.4c3.4-17.5,6-28.1,6-28.1H146.9z"/>
	<path fill="#FFFFFF" d="M180.3,194.4c1.7,3,3.4,4,5.9,4c3.4,0,5.2-2.4,5.2-7.2c0-8.3-3.9-16.4-6.8-25.9c-1.5,4.4-3.2,8.6-4.7,12.6
		c0,0-3.8-0.7-3.8-1.7V176c1.7-4.6,4.3-10.6,6.8-17.1c-0.9-4-1.6-8.3-1.6-12.9c0-5.4,0.9-11.3,3.1-17.9l9.1,1.7
		c-1.1,7.2-2.4,13.7-4,19.6c0.4,11.3,13.6,25.2,13.6,40.3v0.5c2.6-4.2,4.7-9.1,6.7-14.4c0.8,0,3.8,1.1,3.8,1.9
		c-6.2,16.1-13.7,31.6-28.2,31.6c-6.3,0-11.4-3.6-13.3-9.1L180.3,194.4z"/>
	<path fill="#FFFFFF" d="M230.7,115.2c-0.7,11-2,21.2-4.3,32c2.1,0,4-0.1,5.2-0.3l-1.2,6.3c-0.5,0.1-3.1,0.1-5.5,0.1
		c-1.2,5.1-2.6,10.3-4.2,15.8c-1.3,9.3-2,16.2-2,21.2c0,5.6,0.9,8.6,2.7,8.6c3.6,0,8.9-12.6,12.9-23c0.8,0,3.8,1.2,3.8,1.9
		c-7.9,21.5-12.1,30.9-20.8,30.9c-5.9,0-8.3-7.3-8.3-18.7c0-9.8,1.5-23.1,4.6-36.8c-3.1,0-5.4,0-5.9-0.1l0.9-6.3
		c0.9,0,3.2,0.1,6,0.1c1.7-9.3,3.5-18.3,6.6-31.8H230.7z"/>
	<path fill="#FFFFFF" d="M252,146.9c-4.7,20.9-8.6,36.5-8.6,47.5c0,3.9,1.5,4.6,2.7,4.6c3.5,0,7.9-7.5,13.8-23
		c0.7,0,3.8,0.9,3.8,1.7v0.1c-5.9,15.3-10.6,30.9-21.6,30.9c-7.3,0-9.7-6.7-9.7-16c0-14.9,5.9-36.3,8.2-45.9H252z M242.2,132.3
		c0-4.8,3.5-10.6,9.4-10.6c4.4,0,6.3,3.2,6.3,7c0,4.8-3.5,10.5-9.4,10.5C244.3,139.1,242.2,135.9,242.2,132.3z"/>
</g>
<path fill="#FFFFFF" d="M46.2,139.7c0,0-32.7-3.1-31.4-28.7c1.3-25.6,19.9-34,19.9-34l6.2,3.1c0,0-20.4,7-19.9,32.7
	c0.4,21.2,32.7,20.8,32.7,20.8"/>
<path fill="#FFFFFF" d="M26.1,86.2c0,0,10.7,4.7,8.4-9.8c-1.9-11.8-12.4-14.8-7-25.4C27.5,50.9,9.4,66.3,26.1,86.2z"/>
<path fill="#FFFFFF" d="M29.7,89.2c0,0-7.3-9.2,7.4-10.6c11.9-1.2,17.4,8.3,26.4,0.4C63.5,79,53.2,100.4,29.7,89.2z"/>
</svg>
