<?xml version="1.0" encoding="utf-8"?>
<!-- Generator: Adobe Illustrator 18.1.1, SVG Export Plug-In . SVG Version: 6.00 Build 0)  -->
<svg version="1.1" id="Layer_1" xmlns="http://www.w3.org/2000/svg" xmlns:xlink="http://www.w3.org/1999/xlink" x="0px" y="0px"
	 viewBox="0 0 462 95" enable-background="new 0 0 462 95" xml:space="preserve">
<path fill="#FFFFFF" d="M19.4,41.4c2.5-3.5,5-5.5,7.8-5.5c2.8,0,4.2,1.5,4.2,5.7v31.5h13.8V39.4c0-8.7-4.3-13.7-12.4-13.7
	c-5.2,0-9.6,2.2-13.4,6.2V7.6L5.6,9v64.1h13.8V41.4z"/>
<path fill="#FFFFFF" d="M90.6,41.9c0-10.7-5.5-16.2-19.5-16.2c-4.8,0-11.3,1.2-17.2,3.5l3.1,9.2c4.7-1.6,9.2-2.4,11.9-2.4
	c6.2,0,8.4,1.6,8.4,7v1.6H72c-14.2,0-21.9,5.7-21.9,15.6c0,8.5,5.8,14.4,15.3,14.4c5.5,0,10.8-1.9,14.1-6.1c2.2,3.8,5.8,5.4,11.2,6
	l2.8-9.1c-2.2-0.8-2.9-2.1-2.9-5.5V41.9z M70,64.7c-3.5,0-5.3-2.1-5.3-5.5c0-4.5,2.6-6.8,10.2-6.8h2.4v7.3
	C75.6,62.9,72.9,64.7,70,64.7z"/>
<path fill="#FFFFFF" d="M112.3,64.7c-4.6,0-8.6-1.8-12.2-4.6l-6.8,7.6c4.5,4.1,11.3,6.8,19.4,6.8c11.4,0,20.6-5.6,20.6-15.2
	c0-8.5-5.4-12-14-14.5c-8.5-2.4-9.9-3.5-9.9-5.8c0-2.2,2.1-3.5,6.1-3.5c3.8,0,7.6,1.4,10.9,3.5l5.6-8.1c-3.7-2.8-10.1-5.2-17.1-5.2
	c-12.8,0-19.4,6.5-19.4,14.2c0,7.4,5,12,13.1,14.2c9,2.4,10.4,3.4,10.4,6.5C119.1,63.1,116.6,64.7,112.3,64.7z"/>
<path fill="#FFFFFF" d="M171,36.9v-9.7h-34.8v10.4h18.9l-20.7,25.7v9.8h35.8l1.3-10.4h-21.2L171,36.9z"/>
<path fill="#FFFFFF" d="M199.6,62.1c-1.8,1-3.4,1.6-4.9,1.6c-2.8,0-4.3-1.6-4.3-6v-21h9.3l1.5-9.5h-10.8V15.6l-13.8,1.6v9.9h-6.8
	v9.5h6.8v20.9c0,10.6,3.4,16.8,15.2,16.9c4,0,9.1-1.2,12.5-3.6L199.6,62.1z"/>
<path fill="#FFFFFF" d="M244.8,41.9c0-10.7-5.5-16.2-19.5-16.2c-4.8,0-11.3,1.2-17.2,3.5l3.1,9.2c4.7-1.6,9.2-2.4,11.9-2.4
	c6.2,0,8.4,1.6,8.4,7v1.6h-5.3c-14.2,0-21.9,5.7-21.9,15.6c0,8.5,5.8,14.4,15.3,14.4c5.5,0,10.8-1.9,14.1-6.1
	c2.2,3.8,5.8,5.4,11.2,6l2.8-9.1c-2.2-0.8-2.9-2.1-2.9-5.5V41.9z M224.1,64.7c-3.5,0-5.3-2.1-5.3-5.5c0-4.5,2.6-6.8,10.2-6.8h2.4
	v7.3C229.7,62.9,227.1,64.7,224.1,64.7z"/>
<path fill="#FFFFFF" d="M247.6,77.4v0.3c0,8.9,5.1,14.6,21.9,14.6c15.5,0,24.5-5.4,24.5-15.1c0-7.9-6.8-13.4-18.3-13.4h-5.6
	c-5.1,0-6-1-6-2.9c0-0.8,0.3-1.8,0.9-2.5c1.9,0.4,3.9,0.6,5.7,0.6c11.9,0,19.3-6.5,19.3-15.3c0-5.9-2.9-9.5-7.9-11.6v-0.3
	c5.2,0,9.8-0.3,13.1-1.7l-3.5-10.3c-5.3,3.2-12.1,6-21.9,6c-11.4,0-20,5.8-20,17.2c0,6.7,3.6,10.5,7.8,13c-3.1,2.1-5.2,5.3-5.2,8.6
	c0,5.2,4.5,9.1,14.3,9.1h6.8c5.2,0,6.6,2.1,6.6,4.5c0,2.7-1.6,5.1-10.3,5.1c-7.3,0-9.9-1.3-9.9-5.7H247.6z M263.7,42.3
	c0-4.6,2.5-7.3,6.7-7.3c4.4,0,6.5,2.4,6.5,7.2c0,5-2.2,7.7-6.5,7.7C266.2,49.8,263.7,47.2,263.7,42.3z"/>
<path fill="#FFFFFF" d="M294.3,66.7c0,4.3,3.5,7.9,7.8,7.9c4.4,0,7.9-3.5,7.9-7.9c0-4.3-3.5-7.9-7.9-7.9
	C297.7,58.8,294.3,62.4,294.3,66.7z"/>
<path fill="#FFFFFF" d="M332.7,10.9c0-4.4-3.4-7.8-8.2-7.8c-4.7,0-8.1,3.4-8.1,7.8c0,4.4,3.4,7.8,8.1,7.8
	C329.4,18.7,332.7,15.3,332.7,10.9z M331.4,73.1V27.2h-13.8v45.9H331.4z"/>
<path fill="#FFFFFF" d="M352.7,41.4c2.5-3.5,5-5.5,7.8-5.5c2.8,0,4.2,1.5,4.2,5.7v31.5h13.8V39.4c0-8.7-4.3-13.7-12.4-13.7
	c-5.4,0-10.1,2.2-14.2,6.8l-1-5.3h-12v45.9h13.8V41.4z"/>
<path fill="#FFFFFF" d="M406.6,7.5c-11.8,0-17.6,6.9-17.6,15.7v4h-7.1v9.6h7.1v36.3h13.8V36.8h9.2l1.6-9.6h-10.8v-3.5
	c0-4.4,1.3-6,6-6c2.2,0,4.6,0.4,7.5,1.7l3.8-9.1C416.4,8.7,411.9,7.5,406.6,7.5z"/>
<path fill="#FFFFFF" d="M444.1,50c0,10.2-2.7,14.4-8.2,14.4c-5.6,0-8.3-4.2-8.3-14.3c0-9.9,2.8-14.2,8.3-14.2S444.1,40.2,444.1,50z
	 M413.3,50.1c0,15.5,8.5,24.4,22.6,24.4c14.1,0,22.5-9.2,22.5-24.5c0-14.7-8.5-24.4-22.5-24.4C421.8,25.7,413.3,35.5,413.3,50.1z"/>
</svg>
