<?xml version="1.0" encoding="utf-8"?>
<!-- Generator: Adobe Illustrator 18.1.1, SVG Export Plug-In . SVG Version: 6.00 Build 0)  -->
<svg version="1.1" id="Layer_1" xmlns="http://www.w3.org/2000/svg" xmlns:xlink="http://www.w3.org/1999/xlink" x="0px" y="0px"
	 viewBox="0 0 276 265.5" enable-background="new 0 0 276 265.5" xml:space="preserve">
<g>
	<path fill="#FFFFFF" d="M209.7,87.6c-5,11-8.5,19-10.5,24.1h5.1C205.5,105.2,207.4,97.2,209.7,87.6z"/>
	<path fill="#FFFFFF" d="M126.2,123.8c1,0,1.8-0.4,2.4-1.3c0.6-0.9,1.4-3,2.5-6.4l8.4-26.4c0.9-2.7,1.2-4.4,1.2-5.1
		c0-0.7-0.5-1.1-1.4-1.1c-0.8,0-1.5,0.3-2.1,0.9c-0.6,0.6-1.4,2.4-2.3,5.3l-8.5,26.8c-1.1,3.4-1.6,5.4-1.6,6.2
		C124.7,123.4,125.2,123.8,126.2,123.8z"/>
	<path fill="#FFFFFF" d="M142.7,9.9C74.1,9.9,18.6,65.4,18.6,133.9c0,68.5,55.6,124.1,124.1,124.1c68.5,0,124.1-55.5,124.1-124.1
		C266.7,65.4,211.2,9.9,142.7,9.9z M175.6,74.9l-7.1,22.3l13.7-22.3h14l-16.8,25.9l-0.6,26.1l23.5-52l21.6,0l-9.7,57.4l-15.3,0
		l2.5-10.3h-5.3l-4.2,10.3l-13.1,0h-15.4l1.8-24.6l-7.8,24.6h-14.9l18.3-57.4H175.6z M142.2,73.7c3.1,0,5.7,0.5,7.8,1.5
		c2.1,1,3.6,2.5,4.5,4.5c0.9,2,1,4.2,0.6,6.6c-0.5,2.4-1.6,6.5-3.5,12.4l-3.1,9.8c-1.8,5.8-3.3,9.9-4.3,12.3c-1,2.4-2.6,4.6-4.7,6.6
		c-2.1,2-4.5,3.5-7.3,4.6c-2.8,1.1-5.8,1.6-9,1.6c-3.1,0-5.7-0.5-7.8-1.5c-2.1-1-3.6-2.5-4.4-4.5c-0.9-2-1-4.2-0.6-6.6
		c0.5-2.4,1.7-6.5,3.5-12.4l3.1-9.8c1.8-5.8,3.3-9.9,4.3-12.3c1-2.4,2.6-4.6,4.7-6.6c2.1-2,4.5-3.5,7.3-4.6
		C136,74.2,139,73.7,142.2,73.7z M90.5,75h14.9l-7.1,22.3L112,74.9h14l-16.8,25.9l-0.7,31.5H93.1l1.8-24.6l-7.8,24.6H72.1L90.5,75z
		 M82.3,192c-2.2,0.7-6.2,1-12.2,1H52.8l18.4-57.4H86c4.7,0,8.1,0.3,10.3,1.1c2.2,0.7,3.7,2.2,4.4,4.4c0.8,2.2,0.4,5.8-1.2,10.8
		c-1.1,3.4-2.3,5.7-3.8,7c-1.5,1.3-3.9,2.3-7.2,3c3.2,0.8,5.1,2.1,5.8,3.9c0.6,1.8,0.4,4.6-0.8,8.3l-1.7,5.3
		c-1.2,3.9-2.6,6.7-4.1,8.6C86.3,190,84.4,191.3,82.3,192z M89.1,193l18.4-57.4h24.9l-3.7,11.5h-10l-3.5,10.9h9.3l-3.5,10.9h-9.3
		l-4.1,12.6h11L115,193H89.1z M139.1,193l2.6-10.3h-5.4l-4.2,10.3h-15.5l26-57.4h21.6l-9.9,57.4H139.1z M173.5,193h-14.9l14.7-45.9
		h-8.8l3.7-11.5h32.6L197,147h-8.9L173.5,193z M230,152.9h-13.9l1.3-4.2c0.7-2,0.9-3.2,0.7-3.8c-0.2-0.5-0.7-0.8-1.5-0.8
		c-0.9,0-1.7,0.4-2.4,1.1c-0.7,0.7-1.3,1.8-1.7,3.3c-0.6,1.9-0.8,3.4-0.6,4.3c0.2,1,1.2,2.1,3.1,3.5c5.4,4,8.5,7.2,9.4,9.7
		c0.9,2.5,0.5,6.6-1.3,12.2c-1.3,4.1-2.8,7.1-4.3,9c-1.6,1.9-3.9,3.6-7.1,4.9c-3.1,1.3-6.6,2-10.2,2c-4,0-7.2-0.8-9.5-2.3
		c-2.3-1.5-3.6-3.5-3.7-5.8c-0.1-2.4,0.5-5.6,1.9-10l1.2-3.8h13.9l-2.2,7c-0.7,2.2-0.9,3.5-0.8,4.1c0.2,0.6,0.8,0.9,1.8,0.9
		c1,0,1.9-0.4,2.6-1.2c0.7-0.8,1.3-1.9,1.8-3.5c1.1-3.4,1.3-5.6,0.8-6.6c-0.6-1-2.4-2.8-5.3-5.2c-2.9-2.5-4.8-4.2-5.7-5.3
		c-0.8-1.1-1.3-2.7-1.5-4.6c-0.2-2,0.2-4.5,1.2-7.5c1.4-4.4,3-7.6,4.8-9.6c1.8-2.1,4.1-3.6,7-4.8c2.9-1.1,6.1-1.7,9.6-1.7
		c3.9,0,7,0.7,9.3,1.9c2.3,1.3,3.6,2.8,3.9,4.8c0.3,1.9-0.3,5.1-1.8,9.7L230,152.9z"/>
	<path fill="#FFFFFF" d="M144.5,172.5c1.3-6.5,3.1-14.5,5.4-24.1c-5,11-8.5,19-10.5,24.1H144.5z"/>
	<path fill="#FFFFFF" d="M85.9,145.7c-0.5-0.2-1.5-0.3-3-0.3l-4.1,12.8c0.6,0,1.1,0,1.5,0c1.5,0,2.5-0.4,3.1-1.1
		c0.6-0.7,1.5-2.8,2.6-6.2c0.6-1.8,0.8-3.1,0.7-3.8C86.7,146.4,86.4,145.9,85.9,145.7z"/>
	<path fill="#FFFFFF" d="M76,167.1l-5.1,16.1c2.1-0.1,3.6-0.4,4.3-1c0.8-0.6,1.5-2.1,2.3-4.4l1.7-5.3c0.8-2.5,1-3.9,0.6-4.5
		C79.4,167.5,78.2,167.2,76,167.1z"/>
</g>
</svg>
